<?xml version="1.0" encoding="UTF-8"?>
<svg width="77px" height="36px" viewBox="0 0 77 36" version="1.1" xmlns="http://www.w3.org/2000/svg" xmlns:xlink="http://www.w3.org/1999/xlink">
    <!-- Generator: Sketch 43.1 (39012) - http://www.bohemiancoding.com/sketch -->
    <title>MB</title>
    <desc>Created with Sketch.</desc>
    <defs></defs>
    <g id="Page-1" stroke="none" stroke-width="1" fill="none" fill-rule="evenodd">
        <path d="M32.3027344,0.013671875 L43.1181641,0.013671875 L35.4765625,36 L28.4697266,36 L33.6210938,11.6591797 C33.783855,10.9593064 34.0076483,9.97868469 34.2924805,8.71728516 C34.5773126,7.45588562 34.7848301,6.48340186 34.9150391,5.79980469 L21.7070312,36 L14.4072266,36 L14.0410156,5.79980469 C13.9108066,6.48340186 13.7195651,7.45588562 13.4672852,8.71728516 C13.2150052,9.97868469 13.0074878,10.9593064 12.8447266,11.6591797 L7.69335937,36 L0.686523438,36 L8.328125,0.013671875 L19.265625,0.013671875 L19.7783203,28.3095703 L32.3027344,0.013671875 Z M55.6826172,6.26367188 L53.9980469,14.1982422 L62.8359375,14.1982422 C64.4147214,14.1982422 65.7615504,13.9012074 66.8764648,13.3071289 C67.9913793,12.7130504 68.7115869,11.6591873 69.0371094,10.1455078 C69.378908,8.46906714 68.963873,7.36230737 67.7919922,6.82519531 C66.7340442,6.45084448 65.3343186,6.26367188 63.5927734,6.26367188 L55.6826172,6.26367188 Z M52.7285156,20.1552734 L50.7021484,29.75 L59.5400391,29.75 C61.118823,29.75 62.3883416,29.5384136 63.3486328,29.1152344 C65.1227302,28.3339805 66.2457659,26.8365996 66.7177734,24.6230469 C67.1084004,22.7512927 66.6038481,21.4654983 65.2041016,20.765625 C64.4228477,20.374998 63.2509844,20.1715496 61.6884766,20.1552734 L52.7285156,20.1552734 Z M75.8730469,3.84667969 C76.6543008,5.37663525 76.8251975,7.20767163 76.3857422,9.33984375 C75.9137346,11.5371204 74.9778716,13.3030532 73.578125,14.6376953 C72.8131472,15.386397 71.763353,16.0699839 70.4287109,16.6884766 C72.1214277,17.3557976 73.2810841,18.4137297 73.9077148,19.8623047 C74.5343456,21.3108796 74.6279319,23.0686746 74.1884766,25.1357422 C73.7327451,27.2679143 72.7887441,29.1803301 71.3564453,30.8730469 C70.4287063,31.9960994 69.3707742,32.9401003 68.1826172,33.7050781 C66.8479751,34.5839888 65.3628011,35.1861963 63.7270508,35.5117188 C62.0913004,35.8372412 60.3538503,36 58.5146484,36 L42.2060547,36 L49.8476562,0.013671875 L67.328125,0.013671875 C71.7226782,0.0787763672 74.570957,1.35643286 75.8730469,3.84667969 Z" id="MB" fill="#000000"></path>
    </g>
</svg>